<svg width="16" height="16" viewBox="0 0 16 16" fill="none" xmlns="http://www.w3.org/2000/svg">
<path d="M10.6485 0.52417H4.35961C1.95571 0.52417 0 2.47988 0 4.88378V11.1726C0 13.5765 1.95571 15.5322 4.35961 15.5322H10.6484C13.0523 15.5322 15.0081 13.5765 15.0081 11.1727V4.88378C15.0081 2.47988 13.0523 0.52417 10.6485 0.52417ZM13.8356 11.1726C13.8356 12.93 12.4058 14.3597 10.6485 14.3597H4.35961C2.60223 14.3597 1.1725 12.93 1.1725 11.1727V4.88378C1.1725 3.1264 2.60223 1.69667 4.35961 1.69667H10.6484C12.4058 1.69667 13.8356 3.1264 13.8356 4.88378V11.1726Z" fill="#607D8B"/>
</svg>
